HIERARCHY
ROOT Hips
{
	OFFSET	0.0000	0.0000	0.0000
	CHANNELS 6 Xposition Yposition Zposition Xrotation Yrotation Zrotation
	JOINT Spine
	{
		OFFSET	0.0000	9.6567	-5.2257
		CHANNELS 3 Xrotation Yrotation Zrotation
		JOINT Spine1
		{
			OFFSET	0.0000	8.8125	0.4604
			CHANNELS 3 Xrotation Yrotation Zrotation
			JOINT Spine2
			{
				OFFSET	0.0000	10.9044	-2.4272
				CHANNELS 3 Xrotation Yrotation Zrotation
				JOINT Neck
				{
					OFFSET	0.0000	24.5727	-0.5110
					CHANNELS 3 Xrotation Yrotation Zrotation
					JOINT Head
					{
						OFFSET	-0.0001	13.8765	3.7744
						CHANNELS 3 Xrotation Yrotation Zrotation
						End Site
						{
							OFFSET	0.0001	19.3889	0.5788
						}
					}
				}
				JOINT LeftShoulder
				{
					OFFSET	2.4808	23.7139	8.1245
					CHANNELS 3 Xrotation Yrotation Zrotation
					JOINT LeftArm
					{
						OFFSET	14.4933	3.4014	-5.5038
						CHANNELS 3 Xrotation Yrotation Zrotation
						JOINT LeftForeArm
						{
							OFFSET	30.7865	-0.1092	-0.2668
							CHANNELS 3 Xrotation Yrotation Zrotation
							JOINT LeftHand
							{
								OFFSET	25.6825	0.0745	-0.1539
								CHANNELS 3 Xrotation Yrotation Zrotation
								JOINT LeftHandIndex1
								{
									OFFSET	9.9538	0.8705	2.7646
									CHANNELS 3 Xrotation Yrotation Zrotation
									JOINT LeftHandIndex2
									{
										OFFSET	3.7232	-0.9079	0.6560
										CHANNELS 3 Xrotation Yrotation Zrotation
										JOINT LeftHandIndex3
										{
											OFFSET	2.5418	-0.6200	0.4480
											CHANNELS 3 Xrotation Yrotation Zrotation
											End Site
											{
												OFFSET	1.8087	-0.5399	0.2934
											}
										}
									}
								}
								JOINT LeftHandMiddle1
								{
									OFFSET	10.1024	1.0053	0.2407
									CHANNELS 3 Xrotation Yrotation Zrotation
									JOINT LeftHandMiddle2
									{
										OFFSET	4.6036	0.0129	-0.0272
										CHANNELS 3 Xrotation Yrotation Zrotation
										JOINT LeftHandMiddle3
										{
											OFFSET	2.5518	0.0078	-0.0155
											CHANNELS 3 Xrotation Yrotation Zrotation
											End Site
											{
												OFFSET	2.2919	-0.1619	0.0031
											}
										}
									}
								}
								JOINT LeftHandRing1
								{
									OFFSET	9.5741	0.6709	-2.2651
									CHANNELS 3 Xrotation Yrotation Zrotation
									JOINT LeftHandRing2
									{
										OFFSET	4.1772	-0.2115	-0.2615
										CHANNELS 3 Xrotation Yrotation Zrotation
										JOINT LeftHandRing3
										{
											OFFSET	2.3804	-0.1198	-0.1495
											CHANNELS 3 Xrotation Yrotation Zrotation
											End Site
											{
												OFFSET	2.1047	-0.2588	-0.0995
											}
										}
									}
								}
								JOINT LeftHandPinky1
								{
									OFFSET	8.8844	-0.6751	-3.9118
									CHANNELS 3 Xrotation Yrotation Zrotation
									JOINT LeftHandPinky2
									{
										OFFSET	2.5694	-0.5358	-0.7093
										CHANNELS 3 Xrotation Yrotation Zrotation
										JOINT LeftHandPinky3
										{
											OFFSET	1.8842	-0.3924	-0.5205
											CHANNELS 3 Xrotation Yrotation Zrotation
											End Site
											{
												OFFSET	1.6723	-0.4595	-0.3837
											}
										}
									}
								}
								JOINT LeftHandThumb1
								{
									OFFSET	2.0591	-1.5585	1.5610
									CHANNELS 3 Xrotation Yrotation Zrotation
									JOINT LeftHandThumb2
									{
										OFFSET	3.8337	-1.2590	2.8904
										CHANNELS 3 Xrotation Yrotation Zrotation
										JOINT LeftHandThumb3
										{
											OFFSET	2.5244	-0.9033	1.8187
											CHANNELS 3 Xrotation Yrotation Zrotation
											End Site
											{
												OFFSET	1.8564	-0.6390	1.2712
											}
										}
									}
								}
							}
						}
					}
				}
				JOINT RightShoulder
				{
					OFFSET	-2.4808	23.7139	8.1245
					CHANNELS 3 Xrotation Yrotation Zrotation
					JOINT RightArm
					{
						OFFSET	-14.4958	3.4020	-5.5048
						CHANNELS 3 Xrotation Yrotation Zrotation
						JOINT RightForeArm
						{
							OFFSET	-30.7865	-0.1091	-0.2668
							CHANNELS 3 Xrotation Yrotation Zrotation
							JOINT RightHand
							{
								OFFSET	-25.6825	0.0745	-0.1538
								CHANNELS 3 Xrotation Yrotation Zrotation
								JOINT RightHandIndex1
								{
									OFFSET	-9.9539	0.8706	2.7647
									CHANNELS 3 Xrotation Yrotation Zrotation
									JOINT RightHandIndex2
									{
										OFFSET	-3.7232	-0.9079	0.6560
										CHANNELS 3 Xrotation Yrotation Zrotation
										JOINT RightHandIndex3
										{
											OFFSET	-2.5417	-0.6201	0.4480
											CHANNELS 3 Xrotation Yrotation Zrotation
											End Site
											{
												OFFSET	-1.8087	-0.5399	0.2934
											}
										}
									}
								}
								JOINT RightHandMiddle1
								{
									OFFSET	-10.1024	1.0053	0.2407
									CHANNELS 3 Xrotation Yrotation Zrotation
									JOINT RightHandMiddle2
									{
										OFFSET	-4.6036	0.0129	-0.0272
										CHANNELS 3 Xrotation Yrotation Zrotation
										JOINT RightHandMiddle3
										{
											OFFSET	-2.5518	0.0078	-0.0156
											CHANNELS 3 Xrotation Yrotation Zrotation
											End Site
											{
												OFFSET	-2.2919	-0.1619	0.0031
											}
										}
									}
								}
								JOINT RightHandRing1
								{
									OFFSET	-9.5741	0.6709	-2.2651
									CHANNELS 3 Xrotation Yrotation Zrotation
									JOINT RightHandRing2
									{
										OFFSET	-4.1772	-0.2115	-0.2615
										CHANNELS 3 Xrotation Yrotation Zrotation
										JOINT RightHandRing3
										{
											OFFSET	-2.3804	-0.1198	-0.1495
											CHANNELS 3 Xrotation Yrotation Zrotation
											End Site
											{
												OFFSET	-2.1047	-0.2588	-0.0995
											}
										}
									}
								}
								JOINT RightHandPinky1
								{
									OFFSET	-8.8844	-0.6751	-3.9117
									CHANNELS 3 Xrotation Yrotation Zrotation
									JOINT RightHandPinky2
									{
										OFFSET	-2.5694	-0.5358	-0.7093
										CHANNELS 3 Xrotation Yrotation Zrotation
										JOINT RightHandPinky3
										{
											OFFSET	-1.8841	-0.3923	-0.5205
											CHANNELS 3 Xrotation Yrotation Zrotation
											End Site
											{
												OFFSET	-1.6723	-0.4595	-0.3837
											}
										}
									}
								}
								JOINT RightHandThumb1
								{
									OFFSET	-2.0591	-1.5584	1.5609
									CHANNELS 3 Xrotation Yrotation Zrotation
									JOINT RightHandThumb2
									{
										OFFSET	-3.8336	-1.2592	2.8905
										CHANNELS 3 Xrotation Yrotation Zrotation
										JOINT RightHandThumb3
										{
											OFFSET	-2.5244	-0.9032	1.8187
											CHANNELS 3 Xrotation Yrotation Zrotation
											End Site
											{
												OFFSET	-1.8564	-0.6390	1.2712
											}
										}
									}
								}
							}
						}
					}
				}
			}
		}
	}
	JOINT RightUpLeg
	{
		OFFSET	-10.3303	4.3651	-0.8515
		CHANNELS 3 Xrotation Yrotation Zrotation
		JOINT RightLeg
		{
			OFFSET	-0.8266	-44.9320	0.0000
			CHANNELS 3 Xrotation Yrotation Zrotation
			JOINT RightFoot
			{
				OFFSET	0.0000	-44.1205	0.0000
				CHANNELS 3 Xrotation Yrotation Zrotation
				JOINT RightToeBase
				{
					OFFSET	0.0000	-4.8492	10.1404
					CHANNELS 3 Xrotation Yrotation Zrotation
					End Site
					{
						OFFSET	0.0000	0.0000	6.8028
					}
				}
			}
		}
	}
	JOINT LeftUpLeg
	{
		OFFSET	10.3301	4.3654	-0.8515
		CHANNELS 3 Xrotation Yrotation Zrotation
		JOINT LeftLeg
		{
			OFFSET	0.8267	-44.9323	0.0000
			CHANNELS 3 Xrotation Yrotation Zrotation
			JOINT LeftFoot
			{
				OFFSET	0.0000	-44.1205	0.0000
				CHANNELS 3 Xrotation Yrotation Zrotation
				JOINT LeftToeBase
				{
					OFFSET	0.0000	-4.8493	10.1404
					CHANNELS 3 Xrotation Yrotation Zrotation
					End Site
					{
						OFFSET	0.0000	0.0000	6.8028
					}
				}
			}
		}
	}
}
MOTION
Frames:	4
Frame Time: 0.0333333000
	0.0000	92.0557	3.0206	0.000000	0.000000	0.000000	0.000000	0.000000	0.000000	0.000000	0.000000	0.000000	0.000000	0.000000	0.000000	0.000000	0.000000	0.000000	0.000000	0.000000	0.000000	0.000000	0.000000	0.000000	0.000000	0.000000	0.000000	0.000000	0.000000	0.000000	0.000000	0.000000	0.000000	0.000000	0.000000	0.000000	0.000000	0.000000	0.000000	0.000000	0.000000	0.000000	0.000000	0.000000	0.000000	0.000000	0.000000	0.000000	0.000000	0.000000	0.000000	0.000000	0.000000	0.000000	0.000000	0.000000	0.000000	0.000000	0.000000	0.000000	0.000000	0.000000	0.000000	0.000000	0.000000	0.000000	0.000000	0.000000	0.000000	0.000000	0.000000	0.000000	0.000000	0.000000	0.000000	0.000000	0.000000	0.000000	0.000000	0.000000	0.000000	0.000000	0.000000	0.000000	0.000000	0.000000	0.000000	0.000000	0.000000	0.000000	0.000000	0.000000	0.000000	0.000000	0.000000	0.000000	0.000000	0.000000	0.000000	0.000000	0.000000	0.000000	0.000000	0.000000	0.000000	0.000000	0.000000	0.000000	0.000000	0.000000	0.000000	0.000000	0.000000	0.000000	0.000000	0.000000	0.000000	0.000000	0.000000	0.000000	0.000000	0.000000	0.000000	0.000000	0.000000	0.000000	0.000000	0.000000	0.000000	0.000000	0.000000	0.000000	0.000000	0.000000	0.000000	0.000000	0.000000	0.000000	0.000000	0.000000	0.000000	0.000000	0.000000	0.000000	0.000000	0.000000	0.000000	0.000000	0.000000	0.000000	0.000000	0.000000	0.000000	0.000000	0.000000	0.000000	0.000000	0.000000	0.000000
	-75.4205	94.6158	-131.3808	2.332587	-5.260447	-2.897780	0.000000	0.000000	0.000000	0.293141	0.204071	-0.178331	1.021674	0.951072	-0.834051	-1.286428	-0.508470	1.791551	-1.024882	-0.429920	11.184970	-0.000001	0.000001	-12.059170	14.154780	-8.958710	-59.756470	0.121895	-36.598220	0.024908	0.000000	-0.000001	0.000000	0.000000	-0.000001	-0.000001	0.000000	-0.000001	-0.000001	0.000000	-0.000001	-0.000001	0.000000	-0.000001	-0.000001	0.000000	-0.000001	-0.000001	0.000000	-0.000001	-0.000001	0.000000	-0.000001	-0.000001	0.000000	-0.000001	-0.000001	0.000000	-0.000001	-0.000001	0.000000	-0.000001	-0.000001	0.000000	-0.000001	-0.000001	0.000000	-0.000001	-0.000001	0.000000	-0.000001	-0.000001	0.000000	-0.000001	-0.000001	0.000000	-0.000001	-0.000001	-0.000001	0.000001	14.583580	-3.419140	-5.441041	70.933530	0.051941	18.157680	-0.002092	-0.000001	0.000000	0.000001	0.000000	0.000000	0.000001	-0.000002	0.000001	0.000001	0.000000	0.000000	0.000001	0.000000	0.000000	0.000001	-0.000002	0.000001	0.000001	0.000000	0.000000	0.000001	0.000000	0.000000	0.000001	-0.000002	0.000001	0.000001	0.000000	0.000000	0.000001	0.000000	0.000000	0.000001	-0.000002	0.000001	0.000001	0.000000	0.000000	0.000001	0.000000	0.000000	0.000001	-0.000002	0.000001	0.000001	0.000000	0.000000	0.000001	-8.299575	2.276158	5.235881	10.347920	0.000000	0.000000	1.649038	-0.099672	-0.045782	0.000000	0.000000	0.000000	-2.196303	-0.429280	8.227200	4.304833	0.000000	-0.000001	-1.050800	2.039132	0.998599	0.000000	0.000000	0.000000
	-75.3744	94.7164	-131.3747	2.426602	-4.322391	-3.033250	0.000000	0.000000	0.000000	0.228495	0.010933	0.065767	0.779800	0.174592	0.103204	-1.484356	-0.528999	1.850711	-0.857431	-0.298693	7.880307	0.000000	0.000000	-11.870870	15.169780	-3.607473	-62.937080	0.133933	-39.785740	0.032716	0.000001	0.000000	0.000004	0.000000	0.000002	0.000004	0.000002	-0.000002	0.000000	0.000004	0.000002	0.000014	0.000000	0.000002	0.000004	0.000002	-0.000002	0.000000	0.000004	0.000002	0.000014	0.000000	0.000002	0.000004	0.000002	-0.000002	0.000000	0.000004	0.000002	0.000014	0.000000	0.000002	0.000004	0.000002	-0.000002	0.000000	0.000004	0.000002	0.000014	0.000000	0.000002	0.000004	0.000002	-0.000002	0.000000	0.000004	0.000002	0.000014	0.000000	0.000000	14.104190	-3.231508	-11.003790	70.092760	0.064394	21.853430	-0.004558	0.000000	0.000000	0.000000	0.000000	0.000000	0.000000	0.000000	0.000000	0.000000	0.000000	0.000000	0.000000	0.000000	0.000000	0.000000	0.000000	0.000000	0.000000	0.000000	0.000000	0.000000	0.000000	0.000000	0.000000	0.000000	0.000000	0.000000	0.000000	0.000000	0.000000	0.000000	0.000000	0.000000	0.000000	0.000000	0.000000	0.000000	0.000000	0.000000	0.000000	0.000000	0.000000	0.000000	0.000000	0.000000	0.000000	0.000000	0.000000	-8.390517	2.559671	5.186046	10.474060	0.000000	0.000000	2.057336	-0.239771	-0.109532	0.000000	0.000000	0.000000	-2.536805	-0.523575	8.333892	4.481332	0.000000	0.000000	-0.806594	1.738125	0.846321	0.000000	0.000000	0.000000
	-75.3193	94.7729	-131.3835	2.512961	-3.297441	-3.024649	0.000000	0.000000	0.000000	0.205783	-0.077508	0.165814	0.690919	-0.217209	0.522725	-1.577493	-0.553724	1.931419	-0.855242	-0.240239	6.274849	0.000000	0.000000	-11.758270	16.334090	1.214213	-65.260490	0.150237	-43.614960	0.043912	-0.000001	0.000001	-0.000001	-0.000001	0.000001	-0.000001	-0.000001	0.000001	-0.000001	-0.000001	0.000001	-0.000001	-0.000001	0.000001	-0.000001	-0.000001	0.000001	-0.000001	-0.000001	0.000001	-0.000001	-0.000001	0.000001	-0.000001	-0.000001	0.000001	-0.000001	-0.000001	0.000001	-0.000001	-0.000001	0.000001	-0.000001	-0.000001	0.000001	-0.000001	-0.000001	0.000001	-0.000001	-0.000001	0.000001	-0.000001	-0.000001	0.000001	-0.000001	-0.000001	0.000001	-0.000001	0.000000	0.000000	13.784580	-3.362715	-16.070940	66.238660	0.082112	26.773000	-0.009308	0.000000	0.000000	0.000000	0.000000	0.000000	0.000000	0.000000	0.000000	0.000000	0.000000	0.000000	0.000000	0.000000	0.000000	0.000000	0.000000	0.000000	0.000000	0.000000	0.000000	0.000000	0.000000	0.000000	0.000000	0.000000	0.000000	0.000000	0.000000	0.000000	0.000000	0.000000	0.000000	0.000000	0.000000	0.000000	0.000000	0.000000	0.000000	0.000000	0.000000	0.000000	0.000000	0.000000	0.000000	0.000000	0.000000	0.000000	0.000000	-8.452346	2.763577	5.058547	10.542260	0.000000	-0.000001	2.251920	-0.604740	-0.274972	0.000000	0.000000	0.000000	-2.974747	-0.632599	8.288233	4.766534	0.000001	0.000000	-0.649615	1.216802	0.590199	0.000000	0.000000	0.000000
